<svg width="1296.425px" height="235.0399963378906px" xmlns="http://www.w3.org/2000/svg" viewBox="-398.2125 -42.51999816894531 1296.425 235.0399963378906" style="background: rgba(0, 0, 0, 0);" preserveAspectRatio="xMidYMid"><defs><linearGradient id="editing-outline-gradient" x1="-0.5" x2="1.5" y1="0.5" y2="0.5"><stop offset="0" stop-color="#000000"></stop><stop offset="1" stop-color="#000000"></stop></linearGradient><filter id="editing-outline" x="-100%" y="-100%" width="300%" height="300%"><feMorphology in="SourceGraphic" operator="dilate" radius="1" result="outline"></feMorphology><feComposite operator="out" in="outline" in2="SourceAlpha"></feComposite></filter></defs><g filter="url(#editing-outline)"><g transform="translate(-221.02000784873962, 116.294997215271)"><path d="M72.62 0L63.57-21.00L20.88-21.00L11.83 0L2.09 0L38.05-81.78L46.28-81.78L82.24 0L72.62 0ZM24.24-28.88L60.20-28.88L42.22-70.76L24.24-28.88ZM121.45-57.88L121.45-57.88Q141.75-57.88 141.75-35.50L141.75-35.50L141.75 0L132.36 0L132.36-34.92L132.36-34.92Q132.36-42.80 129.28-46.40L129.28-46.40L129.28-46.40Q126.21-50.00 119.48-50.00L119.48-50.00L119.48-50.00Q111.71-50.00 107.07-45.24L107.07-45.24L107.07-45.24Q102.43-40.48 102.43-32.36L102.43-32.36L102.43 0L93.03 0L93.03-56.49L102.31-56.49L102.31-47.21L102.31-47.21Q105.10-52.43 110.08-55.16L110.08-55.16L110.08-55.16Q115.07-57.88 121.45-57.88L121.45-57.88ZM158.92 0L158.92-56.49L168.32-56.49L168.32 0L158.92 0ZM157.99-80.97L169.36-80.97L169.36-70.41L157.99-70.41L157.99-80.97ZM248.70-57.88L248.70-57.88Q267.50-57.88 267.50-35.50L267.50-35.50L267.50 0L258.10 0L258.10-35.03L258.10-35.03Q258.10-42.80 255.37-46.40L255.37-46.40L255.37-46.40Q252.65-50.00 246.62-50.00L246.62-50.00L246.62-50.00Q239.54-50.00 235.48-45.24L235.48-45.24L235.48-45.24Q231.42-40.48 231.42-32.25L231.42-32.25L231.42 0L222.02 0L222.02-35.03L222.02-35.03Q222.02-42.92 219.24-46.46L219.24-46.46L219.24-46.46Q216.46-50.00 210.42-50.00L210.42-50.00L210.42-50.00Q203.35-50.00 199.29-45.24L199.29-45.24L199.29-45.24Q195.23-40.48 195.23-32.25L195.23-32.25L195.23 0L185.83 0L185.83-56.49L195.11-56.49L195.11-47.56L195.11-47.56Q197.66-52.55 202.19-55.22L202.19-55.22L202.19-55.22Q206.71-57.88 212.63-57.88L212.63-57.88L212.63-57.88Q225.74-57.88 229.91-46.75L229.91-46.75L229.91-46.75Q232.35-51.97 237.34-54.93L237.34-54.93L237.34-54.93Q242.32-57.88 248.70-57.88L248.70-57.88ZM307.63-57.88L307.63-57.88Q318.42-57.88 323.70-52.37L323.70-52.37L323.70-52.37Q328.98-46.86 328.98-35.61L328.98-35.61L328.98 0L319.81 0L319.81-9.63L319.81-9.63Q317.61-4.64 313.08-1.91L313.08-1.91L313.08-1.91Q308.56 0.81 302.64 0.81L302.64 0.81L302.64 0.81Q297.19 0.81 292.61-1.39L292.61-1.39L292.61-1.39Q288.03-3.60 285.36-7.54L285.36-7.54L285.36-7.54Q282.69-11.48 282.69-16.24L282.69-16.24L282.69-16.24Q282.69-22.62 285.94-26.16L285.94-26.16L285.94-26.16Q289.19-29.70 296.61-31.26L296.61-31.26L296.61-31.26Q304.04-32.83 317.26-32.83L317.26-32.83L319.81-32.83L319.81-36.66L319.81-36.66Q319.81-43.73 316.91-46.92L316.91-46.92L316.91-46.92Q314.01-50.11 307.52-50.11L307.52-50.11L307.52-50.11Q297.77-50.11 288.14-44.08L288.14-44.08L285.01-50.92L285.01-50.92Q289.42-54.06 295.63-55.97L295.63-55.97L295.63-55.97Q301.83-57.88 307.63-57.88L307.63-57.88ZM303.92-6.61L303.92-6.61Q310.88-6.61 315.35-11.31L315.35-11.31L315.35-11.31Q319.81-16.01 319.81-23.43L319.81-23.43L319.81-26.80L317.72-26.80L317.72-26.80Q307.52-26.80 302.18-25.93L302.18-25.93L302.18-25.93Q296.84-25.06 294.58-23.03L294.58-23.03L294.58-23.03Q292.32-21.00 292.32-17.05L292.32-17.05L292.32-17.05Q292.32-12.53 295.63-9.57L295.63-9.57L295.63-9.57Q298.93-6.61 303.92-6.61L303.92-6.61ZM370.97-6.73L370.97-6.73Q373.52-6.73 376.07-7.08L376.07-7.08L375.61 0.35L375.61 0.35Q372.94 0.81 369.81 0.81L369.81 0.81L369.81 0.81Q359.60 0.81 354.44-4.52L354.44-4.52L354.44-4.52Q349.28-9.86 349.28-19.37L349.28-19.37L349.28-49.07L338.26-49.07L338.26-56.49L349.28-56.49L349.28-73.66L358.67-73.66L358.67-56.49L374.68-56.49L374.68-49.07L358.67-49.07L358.67-20.07L358.67-20.07Q358.67-6.73 370.97-6.73L370.97-6.73ZM432.91-30.28L432.91-26.80L391.62-26.80L391.62-26.80Q392.08-16.94 396.95-11.89L396.95-11.89L396.95-11.89Q401.82-6.84 410.76-6.84L410.76-6.84L410.76-6.84Q420.62-6.84 428.85-13.57L428.85-13.57L431.98-6.73L431.98-6.73Q428.27-3.25 422.47-1.22L422.47-1.22L422.47-1.22Q416.67 0.81 410.64 0.81L410.64 0.81L410.64 0.81Q397.42 0.81 389.82-6.96L389.82-6.96L389.82-6.96Q382.22-14.73 382.22-28.42L382.22-28.42L382.22-28.42Q382.22-37.12 385.58-43.79L385.58-43.79L385.58-43.79Q388.95-50.46 395.04-54.17L395.04-54.17L395.04-54.17Q401.13-57.88 408.90-57.88L408.90-57.88L408.90-57.88Q420.15-57.88 426.53-50.52L426.53-50.52L426.53-50.52Q432.91-43.15 432.91-30.28L432.91-30.28ZM409.02-50.58L409.02-50.58Q401.59-50.58 397.13-45.94L397.13-45.94L397.13-45.94Q392.66-41.30 391.85-32.83L391.85-32.83L424.68-32.83L424.68-32.83Q424.44-41.41 420.38-45.99L420.38-45.99L420.38-45.99Q416.32-50.58 409.02-50.58L409.02-50.58ZM487.43-81.78L496.83-81.78L496.83 0L487.43 0L487.43-10.32L487.43-10.32Q484.88-4.99 479.95-2.09L479.95-2.09L479.95-2.09Q475.02 0.81 468.41 0.81L468.41 0.81L468.41 0.81Q460.98 0.81 455.30-2.90L455.30-2.90L455.30-2.90Q449.62-6.61 446.48-13.28L446.48-13.28L446.48-13.28Q443.35-19.95 443.35-28.77L443.35-28.77L443.35-28.77Q443.35-37.47 446.48-44.08L446.48-44.08L446.48-44.08Q449.62-50.69 455.30-54.29L455.30-54.29L455.30-54.29Q460.98-57.88 468.41-57.88L468.41-57.88L468.41-57.88Q475.02-57.88 479.95-54.98L479.95-54.98L479.95-54.98Q484.88-52.08 487.43-46.75L487.43-46.75L487.43-81.78ZM470.26-6.96L470.26-6.96Q478.50-6.96 482.97-12.59L482.97-12.59L482.97-12.59Q487.43-18.21 487.43-28.54L487.43-28.54L487.43-28.54Q487.43-38.86 482.97-44.43L482.97-44.43L482.97-44.43Q478.50-50.00 470.26-50.00L470.26-50.00L470.26-50.00Q462.03-50.00 457.45-44.43L457.45-44.43L457.45-44.43Q452.86-38.86 452.86-28.77L452.86-28.77L452.86-28.77Q452.86-18.44 457.45-12.70L457.45-12.70L457.45-12.70Q462.03-6.96 470.26-6.96L470.26-6.96ZM620.02-81.78L629.30-81.78L600.76 0L592.64 0L569.33-66.93L546.01 0L538.01 0L509.36-81.78L518.98-81.78L542.18-13.46L565.96-81.78L573.16-81.66L596.59-13.34L620.02-81.78ZM689.27-30.28L689.27-26.80L647.98-26.80L647.98-26.80Q648.44-16.94 653.31-11.89L653.31-11.89L653.31-11.89Q658.18-6.84 667.12-6.84L667.12-6.84L667.12-6.84Q676.98-6.84 685.21-13.57L685.21-13.57L688.34-6.73L688.34-6.73Q684.63-3.25 678.83-1.22L678.83-1.22L678.83-1.22Q673.03 0.81 667.00 0.81L667.00 0.81L667.00 0.81Q653.78 0.81 646.18-6.96L646.18-6.96L646.18-6.96Q638.58-14.73 638.58-28.42L638.58-28.42L638.58-28.42Q638.58-37.12 641.94-43.79L641.94-43.79L641.94-43.79Q645.31-50.46 651.40-54.17L651.40-54.17L651.40-54.17Q657.49-57.88 665.26-57.88L665.26-57.88L665.26-57.88Q676.51-57.88 682.89-50.52L682.89-50.52L682.89-50.52Q689.27-43.15 689.27-30.28L689.27-30.28ZM665.38-50.58L665.38-50.58Q657.95-50.58 653.49-45.94L653.49-45.94L653.49-45.94Q649.02-41.30 648.21-32.83L648.21-32.83L681.04-32.83L681.04-32.83Q680.80-41.41 676.74-45.99L676.74-45.99L676.74-45.99Q672.68-50.58 665.38-50.58L665.38-50.58ZM731.50-57.88L731.50-57.88Q738.92-57.88 744.60-54.29L744.60-54.29L744.60-54.29Q750.29-50.69 753.42-44.08L753.42-44.08L753.42-44.08Q756.55-37.47 756.55-28.77L756.55-28.77L756.55-28.77Q756.55-19.95 753.42-13.28L753.42-13.28L753.42-13.28Q750.29-6.61 744.60-2.90L744.60-2.90L744.60-2.90Q738.92 0.81 731.50 0.81L731.50 0.81L731.50 0.81Q724.88 0.81 719.95-2.09L719.95-2.09L719.95-2.09Q715.02-4.99 712.47-10.32L712.47-10.32L712.47 0L703.08 0L703.08-81.78L712.47-81.78L712.47-46.75L712.47-46.75Q715.02-52.08 719.95-54.98L719.95-54.98L719.95-54.98Q724.88-57.88 731.50-57.88L731.50-57.88ZM729.64-6.96L729.64-6.96Q737.88-6.96 742.40-12.70L742.40-12.70L742.40-12.70Q746.92-18.44 746.92-28.77L746.92-28.77L746.92-28.77Q746.92-38.86 742.40-44.43L742.40-44.43L742.40-44.43Q737.88-50.00 729.64-50.00L729.64-50.00L729.64-50.00Q721.40-50.00 716.94-44.43L716.94-44.43L716.94-44.43Q712.47-38.86 712.47-28.54L712.47-28.54L712.47-28.54Q712.47-18.21 716.94-12.59L716.94-12.59L716.94-12.59Q721.40-6.96 729.64-6.96L729.64-6.96ZM789.73 0.81L789.73 0.81Q775.46 0.81 767.11-6.50L767.11-6.50L770.24-13.46L770.24-13.46Q774.76-9.86 779.46-8.29L779.46-8.29L779.46-8.29Q784.16-6.73 790.08-6.73L790.08-6.73L790.08-6.73Q796.34-6.73 799.65-8.87L799.65-8.87L799.65-8.87Q802.95-11.02 802.95-15.08L802.95-15.08L802.95-15.08Q802.95-18.44 800.75-20.42L800.75-20.42L800.75-20.42Q798.54-22.39 793.44-23.55L793.44-23.55L783.93-25.75L783.93-25.75Q776.74-27.38 772.91-31.32L772.91-31.32L772.91-31.32Q769.08-35.26 769.08-41.06L769.08-41.06L769.08-41.06Q769.08-48.60 775.00-53.24L775.00-53.24L775.00-53.24Q780.91-57.88 790.77-57.88L790.77-57.88L790.77-57.88Q796.69-57.88 802.02-55.97L802.02-55.97L802.02-55.97Q807.36-54.06 810.96-50.46L810.96-50.46L807.82-43.62L807.82-43.62Q800.05-50.23 790.77-50.23L790.77-50.23L790.77-50.23Q784.86-50.23 781.55-47.97L781.55-47.97L781.55-47.97Q778.24-45.70 778.24-41.64L778.24-41.64L778.24-41.64Q778.24-38.28 780.27-36.25L780.27-36.25L780.27-36.25Q782.30-34.22 786.83-33.18L786.83-33.18L796.46-30.86L796.46-30.86Q804.34-29 808.17-25.23L808.17-25.23L808.17-25.23Q812.00-21.46 812.00-15.43L812.00-15.43L812.00-15.43Q812.00-8.00 806.03-3.60L806.03-3.60L806.03-3.60Q800.05 0.81 789.73 0.81L789.73 0.81ZM826.27 0L826.27-56.49L835.66-56.49L835.66 0L826.27 0ZM825.34-80.97L836.71-80.97L836.71-70.41L825.34-70.41L825.34-80.97ZM878.00-6.73L878.00-6.73Q880.56-6.73 883.11-7.08L883.11-7.08L882.64 0.35L882.64 0.35Q879.98 0.81 876.84 0.81L876.84 0.81L876.84 0.81Q866.64 0.81 861.47-4.52L861.47-4.52L861.47-4.52Q856.31-9.86 856.31-19.37L856.31-19.37L856.31-49.07L845.29-49.07L845.29-56.49L856.31-56.49L856.31-73.66L865.71-73.66L865.71-56.49L881.72-56.49L881.72-49.07L865.71-49.07L865.71-20.07L865.71-20.07Q865.71-6.73 878.00-6.73L878.00-6.73ZM939.95-30.28L939.95-26.80L898.65-26.80L898.65-26.80Q899.12-16.94 903.99-11.89L903.99-11.89L903.99-11.89Q908.86-6.84 917.79-6.84L917.79-6.84L917.79-6.84Q927.65-6.84 935.89-13.57L935.89-13.57L939.02-6.73L939.02-6.73Q935.31-3.25 929.51-1.22L929.51-1.22L929.51-1.22Q923.71 0.81 917.68 0.81L917.68 0.81L917.68 0.81Q904.45 0.81 896.85-6.96L896.85-6.96L896.85-6.96Q889.26-14.73 889.26-28.42L889.26-28.42L889.26-28.42Q889.26-37.12 892.62-43.79L892.62-43.79L892.62-43.79Q895.98-50.46 902.07-54.17L902.07-54.17L902.07-54.17Q908.16-57.88 915.94-57.88L915.94-57.88L915.94-57.88Q927.19-57.88 933.57-50.52L933.57-50.52L933.57-50.52Q939.95-43.15 939.95-30.28L939.95-30.28ZM916.05-50.58L916.05-50.58Q908.63-50.58 904.16-45.94L904.16-45.94L904.16-45.94Q899.70-41.30 898.88-32.83L898.88-32.83L931.71-32.83L931.71-32.83Q931.48-41.41 927.42-45.99L927.42-45.99L927.42-45.99Q923.36-50.58 916.05-50.58L916.05-50.58Z" fill="url(#editing-outline-gradient)"></path></g></g><style>text {
  font-size: 64px;
  font-family: Arial Black;
  dominant-baseline: central;
  text-anchor: middle;
}</style></svg>